<?xml version="1.0" standalone="no"?>
<!DOCTYPE svg PUBLIC "-//W3C//DTD SVG 20010904//EN"
 "http://www.w3.org/TR/2001/REC-SVG-20010904/DTD/svg10.dtd">
<svg version="1.0" xmlns="http://www.w3.org/2000/svg"
 width="73.000000pt" height="73.000000pt" viewBox="0 0 73.000000 73.000000"
 preserveAspectRatio="xMidYMid meet">
<metadata>
Created by potrace 1.11, written by Peter Selinger 2001-2013
</metadata>
<g transform="translate(0.000000,73.000000) scale(0.100000,-0.100000)"
fill="#000000" stroke="none">
<path d="M102 633 l-92 -95 0 -194 0 -194 25 0 c14 0 25 -4 25 -10 0 -5 11
-10 24 -10 13 0 26 -7 30 -15 3 -8 15 -15 26 -15 11 0 20 -4 20 -10 0 -5 11
-10 24 -10 13 0 26 -7 30 -15 3 -8 15 -15 26 -15 11 0 20 -4 20 -10 0 -5 11
-10 25 -10 16 0 25 -6 25 -15 0 -21 66 -21 74 0 3 8 15 15 26 15 11 0 20 5 20
10 0 6 11 10 24 10 13 0 26 7 30 15 3 8 15 15 26 15 11 0 20 5 20 10 0 6 11
10 24 10 13 0 26 7 30 15 3 8 15 15 26 15 11 0 20 5 20 10 0 6 8 10 18 10 9 1
27 9 40 19 21 19 22 25 22 200 0 154 -2 181 -15 181 -8 0 -15 3 -15 8 0 17
-60 72 -79 72 -12 0 -21 5 -21 10 0 6 -11 10 -25 10 -16 0 -25 6 -25 15 0 9
-9 15 -25 15 -14 0 -25 5 -25 10 0 6 -11 10 -25 10 -16 0 -25 6 -25 15 0 8 -9
15 -20 15 -11 0 -20 -7 -20 -15 0 -9 -9 -15 -25 -15 -14 0 -25 -4 -25 -10 0
-5 -11 -10 -25 -10 -16 0 -25 -6 -25 -15 0 -8 9 -15 19 -15 11 0 23 -4 26 -10
3 -5 15 -10 26 -10 11 0 22 -7 25 -15 4 -8 14 -15 24 -15 11 0 22 -4 25 -10 3
-5 15 -10 26 -10 38 0 21 -42 -43 -107 -44 -45 -59 -66 -52 -73 8 -8 21 -5 45
9 19 12 41 24 49 27 24 10 74 34 90 43 8 5 32 17 52 25 44 19 56 35 37 47 -14
9 -31 8 -76 -6 -19 -6 -23 -4 -23 14 0 13 -9 25 -22 31 -13 6 -30 14 -38 19
-29 18 -110 51 -125 51 -8 0 -15 5 -15 10 0 6 7 10 15 10 8 0 24 6 35 12 16
10 24 10 40 0 11 -6 26 -12 34 -12 8 0 16 -7 20 -15 3 -8 14 -15 25 -15 11 0
23 -4 26 -10 3 -5 14 -10 25 -10 10 0 20 -7 24 -15 3 -8 14 -15 24 -15 10 0
30 -13 44 -29 25 -28 26 -31 27 -205 2 -167 1 -176 -17 -176 -11 0 -25 -7 -32
-15 -7 -8 -21 -15 -31 -15 -11 0 -19 -4 -19 -10 0 -5 -9 -10 -20 -10 -11 0
-23 -7 -26 -15 -4 -8 -16 -15 -29 -15 -13 0 -26 -7 -29 -16 -3 -8 -10 -13 -15
-10 -5 4 -16 -1 -24 -9 -9 -8 -24 -15 -35 -15 -11 0 -22 -7 -26 -15 -6 -17
-66 -21 -66 -5 0 6 -8 10 -19 10 -10 0 -24 7 -31 15 -7 8 -21 15 -31 15 -11 0
-19 5 -19 10 0 6 -9 10 -20 10 -11 0 -23 7 -26 15 -4 8 -17 15 -30 15 -13 0
-24 5 -24 10 0 6 -8 10 -18 10 -10 0 -25 9 -35 20 -15 17 -17 44 -17 193 l0
172 83 83 c45 45 88 82 95 82 6 0 12 7 12 15 0 34 -40 8 -128 -82z"/>
<path d="M240 690 c0 -5 9 -10 20 -10 11 0 20 5 20 10 0 6 -9 10 -20 10 -11 0
-20 -4 -20 -10z"/>
</g>
</svg>
